<svg xmlns="http://www.w3.org/2000/svg" viewBox="220 580 1170 450">
  <defs>
    <linearGradient id="leafGrad" x1="0%" y1="0%" x2="0%" y2="100%">
      <stop offset="0%" style="stop-color:#d9d694;stop-opacity:1" />
      <stop offset="100%" style="stop-color:#c9c24f;stop-opacity:1" />
    </linearGradient>
  </defs>
  <path d="M 254 700 L 280 749 L 252 768 L 250 790 L 290 891 L 309 893 L 342 861 L 362 919 L 387 923 L 406 905 L 422 933 L 454 953 L 485 943 L 489 907 L 552 985 L 577 973 L 596 913 L 618 973 L 635 975 L 659 953 L 664 975 L 681 981 L 773 897 L 760 970 L 772 985 L 841 947 L 842 993 L 879 995 L 947 911 L 942 981 L 965 989 L 1009 969 L 1012 988 L 1031 997 L 1112 927 L 1122 957 L 1145 961 L 1259 862 L 1251 840 L 1215 833 L 1245 793 L 1247 766 L 1225 754 L 1191 763 L 1208 729 L 1199 716 L 1148 716 L 1108 732 L 1107 680 L 1088 661 L 1040 716 L 1033 669 L 945 710 L 913 628 L 880 624 L 863 696 L 855 646 L 839 638 L 781 698 L 753 632 L 728 618 L 701 681 L 683 648 L 664 642 L 572 700 L 615 625 L 615 612 L 600 608 L 461 685 L 415 628 L 384 622 L 366 648 L 371 708 L 299 692 Z" fill="url(#leafGrad)" />
  <path d="M 566 718 L 589 718 L 668 659 L 697 716 L 733 645 L 775 716 L 840 655 L 859 736 L 875 715 L 891 652 L 935 732 L 1017 689 L 1018 714 L 1027 722 L 1036 675 L 1024 670 L 940 716 L 899 630 L 885 623 L 863 702 L 853 645 L 839 640 L 778 703 L 749 637 L 728 620 L 697 691 L 684 653 L 666 643 Z M 614 615 L 601 610 L 457 689 L 418 633 L 393 621 L 374 635 L 374 716 L 290 693 L 258 698 L 254 709 L 287 748 L 291 736 L 280 709 L 382 728 L 393 638 L 458 703 L 584 638 L 554 691 L 559 712 Z M 595 838 L 579 775 L 552 737 L 541 745 L 547 806 L 491 780 L 474 790 L 485 814 L 443 794 L 422 803 L 443 830 L 435 808 L 500 836 L 513 824 L 496 797 L 558 822 L 562 775 L 582 834 Z M 758 871 L 769 875 L 795 808 L 804 864 L 819 863 L 879 818 L 858 871 L 875 871 L 908 851 L 916 861 L 915 844 L 874 859 L 905 800 L 892 797 L 814 849 L 810 782 L 798 772 Z M 1095 744 L 1103 753 L 1146 733 L 1185 729 L 1181 775 L 1223 779 L 1206 838 L 1244 791 L 1240 760 L 1219 756 L 1188 766 L 1207 729 L 1192 715 L 1144 719 Z" fill="#2d3a1a" opacity="0.6" />
</svg>
